<?xml version="1.0" encoding="utf-8"?>
<!-- Generator: Adobe Illustrator 24.0.1, SVG Export Plug-In . SVG Version: 6.00 Build 0)  -->
<svg version="1.1" id="Layer_1" xmlns="http://www.w3.org/2000/svg" xmlns:xlink="http://www.w3.org/1999/xlink" x="0px" y="0px"
	 viewBox="0 0 400 100" style="enable-background:new 0 0 400 100;" xml:space="preserve">
<style type="text/css">
	.st0{fill:#003366;}
	.st1{fill:#333333;}
</style>
<g>
	<g>
		<path class="st0" d="M51.1,12v67.9H34.6L24.9,49v30.8H9.2V12h15.7l10.5,30.6V12H51.1z"/>
		<path class="st0" d="M98.8,53H75.5v12c0,2.5,0.2,4.1,0.6,4.9c0.4,0.7,1.1,1.1,2.2,1.1c1.4,0,2.3-0.5,2.7-1.4s0.7-2.8,0.7-5.6v-7.3
			h17v4.1c0,3.4-0.2,6.1-0.7,7.9c-0.5,1.8-1.5,3.8-3.2,5.9s-3.8,3.7-6.4,4.7s-5.9,1.6-9.8,1.6c-3.8,0-7.1-0.5-10.1-1.6
			c-2.9-1-5.2-2.5-6.8-4.3s-2.7-3.8-3.4-6s-0.9-5.3-0.9-9.5V43.4c0-4.9,0.7-8.7,2.1-11.5c1.4-2.8,3.7-5,6.9-6.5s6.8-2.2,10.9-2.2
			c5,0,9.2,0.9,12.5,2.7c3.3,1.8,5.6,4.2,6.9,7.2s2,7.2,2,12.6V53H98.8z M80.7,44v-4.1c0-2.9-0.2-4.7-0.5-5.6c-0.3-0.8-1-1.3-2-1.3
			c-1.2,0-2,0.4-2.3,1.1c-0.3,0.7-0.4,2.6-0.4,5.8V44H80.7z"/>
		<path class="st0" d="M162.8,24.2l-7.2,55.6h-19.5c-1.1-6.8-2.3-15.8-3.7-26.9c-0.5,4.9-1.2,9.8-2,14.8l-2,12.1h-19.6l-7.6-55.6
			h15.5c0.1,1.5,1.4,12.1,3.9,31.9c0.2-2,1.5-12.7,4-31.9h14.9l3.6,31.9c0.6-9.3,2-19.9,4.1-31.9C147.2,24.2,162.8,24.2,162.8,24.2z
			"/>
		<path class="st0" d="M202.4,42h-15.9v-3c0-2.6-0.2-4.2-0.5-4.9s-1.1-1-2.3-1c-1,0-1.8,0.3-2.3,0.9c-0.5,0.6-0.8,1.6-0.8,2.8
			c0,1.7,0.1,3,0.4,3.8c0.3,0.8,1,1.7,2.3,2.6c1.3,1,3.8,2.3,7.8,4.1c5.2,2.4,8.6,4.7,10.3,6.8c1.6,2.1,2.4,5.2,2.4,9.3
			c0,4.5-0.6,7.9-1.9,10.2c-1.2,2.3-3.3,4.1-6.3,5.3c-2.9,1.2-6.4,1.9-10.6,1.9c-4.6,0-8.5-0.7-11.7-2s-5.5-3.2-6.7-5.4
			s-1.8-5.8-1.8-10.4v-2.7h15.9v3.5c0,3,0.2,4.9,0.6,5.8c0.4,0.9,1.2,1.3,2.4,1.3c1.3,0,2.2-0.3,2.7-0.9s0.8-1.9,0.8-3.8
			c0-2.7-0.3-4.3-1-5s-4.2-2.7-10.5-6c-5.3-2.8-8.5-5.3-9.7-7.6s-1.7-5-1.7-8.1c0-4.4,0.6-7.7,1.9-9.8c1.2-2.1,3.4-3.7,6.3-4.9
			c3-1.1,6.4-1.7,10.4-1.7c3.9,0,7.2,0.5,10,1.4c2.7,0.9,4.9,2.2,6.3,3.7c1.5,1.5,2.4,3,2.7,4.3s0.5,3.4,0.5,6.2L202.4,42L202.4,42z
			"/>
		<path class="st1" d="M243.9,12v54.3h11.4v13.6h-30.1V12H243.9z"/>
		<path class="st1" d="M299.9,43.8v13.6c0,5-0.3,8.7-0.8,11s-1.7,4.5-3.4,6.5c-1.8,2-4,3.5-6.7,4.5s-5.9,1.4-9.5,1.4
			c-4,0-7.3-0.4-10.1-1.2s-4.9-2.1-6.4-3.7c-1.5-1.7-2.6-3.7-3.3-6c-0.7-2.4-1-5.9-1-10.6V45c0-5.2,0.6-9.2,1.8-12.1
			c1.2-2.9,3.3-5.2,6.4-7s7-2.6,11.8-2.6c4,0,7.5,0.6,10.4,1.7s5.1,2.6,6.7,4.4s2.6,3.7,3.2,5.6C299.6,36.9,299.9,39.8,299.9,43.8z
			 M282,39.6c0-2.8-0.2-4.6-0.5-5.4s-1-1.1-2.1-1.1s-1.8,0.4-2.1,1.1c-0.4,0.7-0.5,2.5-0.5,5.4v25.1c0,2.6,0.2,4.3,0.5,5.1
			c0.4,0.8,1.1,1.2,2.1,1.2c1.1,0,1.8-0.4,2.1-1.1s0.5-2.3,0.5-4.7V39.6z"/>
		<path class="st1" d="M346.7,24.2V67c0,5.8-0.1,9.5-0.4,11.2s-1.3,3.5-3,5.4s-4.1,3.3-7.2,4.3s-6.9,1.5-11.6,1.5
			c-5.7,0-10.3-0.9-13.8-2.7c-3.5-1.8-5.3-5.4-5.4-10.8h17.4c0,2.5,0.9,3.7,2.8,3.7c1.4,0,2.3-0.4,2.7-1.1c0.4-0.8,0.7-2.3,0.7-4.7
			v-4.2c-1.5,1.3-3.2,2.3-4.9,3c-1.7,0.7-3.5,1-5.4,1c-3.2,0-5.9-0.6-8-1.8c-2.1-1.2-3.5-2.8-4.3-4.8s-1.2-4.8-1.2-8.5V38.1
			c0-5.3,1-9.1,3-11.4s5.1-3.5,9.2-3.5c2.3,0,4.3,0.4,6.2,1.3c1.9,0.9,3.5,2.2,5,3.9l1.3-4.2C329.8,24.2,346.7,24.2,346.7,24.2z
			 M328.7,39c0-2.5-0.2-4.2-0.5-4.9s-1-1-2.1-1c-1,0-1.8,0.4-2.2,1.2s-0.6,2.4-0.6,4.7v18.7c0,2.5,0.2,4.1,0.5,4.8s1,1.1,2,1.1
			c1.2,0,2-0.4,2.3-1.3c0.4-0.9,0.5-2.9,0.5-6.1V39H328.7z"/>
		<path class="st1" d="M393.8,43.8v13.6c0,5-0.3,8.7-0.8,11s-1.7,4.5-3.4,6.5c-1.8,2-4,3.5-6.7,4.5s-5.9,1.4-9.5,1.4
			c-4,0-7.3-0.4-10.1-1.2s-4.9-2.1-6.4-3.7c-1.5-1.7-2.6-3.7-3.3-6c-0.7-2.4-1-5.9-1-10.6V45c0-5.2,0.6-9.2,1.8-12.1
			c1.2-2.9,3.3-5.2,6.4-7s7-2.6,11.8-2.6c4,0,7.5,0.6,10.4,1.7s5.1,2.6,6.7,4.4s2.6,3.7,3.2,5.6C393.5,36.9,393.8,39.8,393.8,43.8z
			 M375.8,39.6c0-2.8-0.2-4.6-0.5-5.4s-1-1.1-2.1-1.1s-1.8,0.4-2.1,1.1c-0.4,0.7-0.5,2.5-0.5,5.4v25.1c0,2.6,0.2,4.3,0.5,5.1
			c0.4,0.8,1.1,1.2,2.1,1.2c1.1,0,1.8-0.4,2.1-1.1s0.5-2.3,0.5-4.7V39.6z"/>
	</g>
</g>
</svg>
